<svg width="41" height="41" viewBox="0 0 41 41" fill="none" xmlns="http://www.w3.org/2000/svg">
<path d="M26.3591 8.48724C29.9844 8.48724 32.9232 11.4261 32.9232 15.0513V29.0001C32.9232 32.6253 29.9844 35.5642 26.3591 35.5642H14.872C11.2467 35.5642 8.30786 32.6253 8.30786 29.0001V15.0513C8.30786 11.4261 11.2467 8.48724 14.872 8.48724" stroke="#2E6FF2" stroke-width="1.47692" stroke-linecap="round"/>
<path d="M16.103 8.8975C16.103 7.08487 17.5725 5.61545 19.3851 5.61545H21.8466C23.6592 5.61545 25.1287 7.08487 25.1287 8.8975C25.1287 9.80381 24.394 10.5385 23.4876 10.5385H17.7441C16.8377 10.5385 16.103 9.80381 16.103 8.8975Z" stroke="#2E6FF2" stroke-width="1.47692" stroke-linecap="round"/>
<path d="M12.7385 16.9385H28.4924" stroke="#2E6FF2" stroke-width="0.984615"/>
<path d="M12.7385 20.877H28.4924" stroke="#2E6FF2" stroke-width="0.984615"/>
<path d="M12.7385 24.8154H28.4924" stroke="#2E6FF2" stroke-width="0.984615"/>
<path d="M12.7385 28.7539H28.4924" stroke="#2E6FF2" stroke-width="0.984615"/>
</svg>
