<svg width="41" height="41" viewBox="0 0 41 41" fill="none" xmlns="http://www.w3.org/2000/svg">
<path d="M25.3264 21.7967L30.3643 19.7815C31.3584 19.3838 32.0102 18.421 32.0102 17.3504C32.0102 15.4706 30.0882 14.2032 28.3604 14.9437L21.8159 17.7485C20.9903 18.1023 20.0558 18.1023 19.2302 17.7485L12.6857 14.9437C10.9579 14.2032 9.03589 15.4706 9.03589 17.3504C9.03589 18.421 9.68774 19.3838 10.6818 19.7815L15.7198 21.7967C16.6385 22.1642 17.241 23.054 17.241 24.0436C17.241 24.5773 17.0646 25.0961 16.7392 25.5191L12.2474 31.3584C10.9354 33.064 12.1513 35.5334 14.3032 35.5334C15.1195 35.5334 15.8883 35.149 16.3781 34.4959L20.5231 28.9693L24.6681 34.4959C25.1579 35.149 25.9266 35.5334 26.743 35.5334C28.8948 35.5334 30.1107 33.064 28.7987 31.3584L24.307 25.5191C23.9816 25.0961 23.8051 24.5773 23.8051 24.0436C23.8051 23.054 24.4076 22.1642 25.3264 21.7967Z" stroke="#2E6FF2" stroke-width="1.47692" stroke-linejoin="round"/>
<path d="M24.6255 9.27697C24.6255 11.5428 22.7888 13.3795 20.523 13.3795C18.2572 13.3795 16.4204 11.5428 16.4204 9.27697C16.4204 7.01119 18.2572 5.17441 20.523 5.17441C22.7888 5.17441 24.6255 7.01119 24.6255 9.27697Z" stroke="#2E6FF2" stroke-width="1.47692" stroke-linejoin="round"/>
</svg>
