<svg width="99" height="37" viewBox="0 0 99 37" fill="none" xmlns="http://www.w3.org/2000/svg">
<g clip-path="url(#clip0_2344_1435)">
<mask id="mask0_2344_1435" style="mask-type:luminance" maskUnits="userSpaceOnUse" x="24" y="0" width="44" height="37">
<path d="M67.2112 0.646118H24.6077V36.0923H67.2112V0.646118Z" fill="white"/>
</mask>
<g mask="url(#mask0_2344_1435)">
<path d="M47.3933 19.2392C47.2971 23.2469 46.3794 27.8956 43.4271 31.8921C39.3185 37.4509 32.8993 37.4935 28.6703 32.0311C28.6024 31.9437 28.5389 31.854 28.4732 31.7643C23.3003 24.7128 23.3178 11.8917 28.5433 4.87378C30.5078 2.23559 33.0022 0.491751 36.4057 0.657618C39.4719 0.807794 41.7012 2.51353 43.4883 4.91186C46.0048 8.28972 47.3933 13.1447 47.3911 19.2392H47.3933ZM44.176 14.8953C43.5871 11.5286 42.6366 8.49147 40.4553 5.9945C40.0958 5.58206 39.6821 5.20776 39.2507 4.87378C37.124 3.242 34.6448 3.18597 32.6651 4.98809C31.5262 6.02588 30.4771 7.3102 29.7829 8.69094C27.2512 13.7387 27.0015 19.071 28.4075 24.5043C29.0952 27.1649 30.2297 29.5991 32.2773 31.4685C34.3096 33.3245 36.7472 33.6201 38.8673 32.1073C42.3103 29.6506 43.4031 25.8805 44.187 21.837C41.5961 22.7627 39.9317 22.4018 38.747 20.7476C37.722 19.3154 37.7526 17.2869 38.8212 15.8636C39.9885 14.308 41.7362 13.9628 44.1782 14.893L44.176 14.8953Z" fill="#F87067"/>
<path d="M50.021 7.6554C49.5438 6.66467 49.0749 5.83087 48.753 4.94325C48.6567 4.67653 48.8802 4.18565 49.0992 3.91889C52.4696 -0.198624 58.0784 -0.465358 61.9112 3.32492C64.5677 5.95191 65.932 9.28043 66.648 12.9183C67.6686 18.1072 67.3379 23.1908 65.3516 28.1108C64.3967 30.4755 63.0413 32.5623 61.0351 34.1606C57.2857 37.1462 51.8936 36.4961 48.983 32.6609C48.7924 32.4121 48.7224 31.9078 48.8319 31.6119C49.1342 30.7893 49.559 30.0115 49.9948 29.0903C50.275 29.4758 50.4985 29.7896 50.7263 30.0967C53.5318 33.8894 57.6208 34.0081 60.5706 30.3477C62.5177 27.9315 63.4398 25.0736 63.9369 21.8684C61.6044 22.8232 59.6443 22.5565 58.3018 20.3285C57.4826 18.9724 57.6754 17.0515 58.6411 15.8299C59.8349 14.3214 61.4422 13.9942 63.9697 14.8549C63.7463 13.844 63.5755 12.9273 63.3388 12.0285C62.774 9.8901 61.8673 7.91539 60.4611 6.21414C57.1168 2.15937 53.2557 3.5782 50.8841 6.42259C50.6035 6.75881 50.376 7.14208 50.0188 7.6554H50.021Z" fill="#F87067"/>
</g>
<path d="M1.42859 14.6133V10.4906H20.2783V14.6133H13.2517V34.1411H8.45523V14.6133H1.42859Z" fill="#2E6FF2"/>
<path d="M71.7307 10.4906H77.7151L84.0356 26.3808H84.3048L90.6252 10.4906H96.6096V34.1411H91.9027V18.7475H91.7124L85.7728 34.0256H82.5678L76.6279 18.6898H76.4376V34.1411H71.7307V10.4906Z" fill="#2E6FF2"/>
</g>
<defs>
<clipPath id="clip0_2344_1435">
<rect width="98.4615" height="35.4462" fill="white" transform="translate(0.307861 0.64621)"/>
</clipPath>
</defs>
</svg>
