<svg width="40" height="32" viewBox="0 0 40 32" fill="none" xmlns="http://www.w3.org/2000/svg">
<path d="M22.98 26.3159L15.6667 23.7639L10.464 25.7759C10.2773 25.8505 10.0991 25.8741 9.92933 25.8465C9.75867 25.8199 9.60133 25.7612 9.45733 25.6705C9.31333 25.5799 9.20133 25.4581 9.12133 25.3052C9.04133 25.1523 9.00089 24.9763 9 24.7772V8.54655C9 8.29588 9.05778 8.0741 9.17333 7.88121C9.28889 7.68832 9.45689 7.55366 9.67733 7.47721L14.9533 5.68521C15.0636 5.64077 15.1778 5.60744 15.296 5.58521C15.4151 5.56299 15.5387 5.55188 15.6667 5.55188C15.7947 5.55188 15.9178 5.56299 16.036 5.58521C16.1542 5.60744 16.2684 5.64077 16.3787 5.68521L23.6667 8.23588L28.8693 6.22521C29.056 6.15055 29.2342 6.12655 29.404 6.15321C29.5738 6.17988 29.7311 6.23855 29.876 6.32921C30.0191 6.41988 30.1311 6.54166 30.212 6.69455C30.2929 6.84744 30.3333 7.02344 30.3333 7.22255V23.5679C30.3333 23.8203 30.2627 24.0403 30.1213 24.2279C29.9809 24.4163 29.7916 24.5488 29.5533 24.6252L24.3533 26.3412C24.2378 26.3857 24.124 26.4145 24.012 26.4279C23.9009 26.4412 23.7853 26.4479 23.6653 26.4479C23.5444 26.4479 23.4289 26.4372 23.3187 26.4159C23.2084 26.3945 23.0964 26.3612 22.98 26.3159ZM23 24.9385V9.33855L16.3333 7.01055V22.6105L23 24.9385ZM24.3333 24.9385L29 23.3999V7.59988L24.3333 9.33855V24.9385ZM10.3333 24.3999L15 22.6105V7.01055L10.3333 8.59988V24.3999Z" fill="black"/>
</svg>
