<svg width="40" height="40" viewBox="0 0 40 40" fill="none" xmlns="http://www.w3.org/2000/svg">
<rect width="40" height="40" rx="20" fill="white"/>
<path d="M11.222 31C10.5886 31 10.0601 30.7882 9.63662 30.3647C9.21312 29.9412 9.00092 29.4123 9 28.778V11.222C9 10.5886 9.21221 10.0601 9.63662 9.63662C10.061 9.21312 10.5895 9.00092 11.222 9H28.7794C29.4119 9 29.9403 9.21221 30.3647 9.63662C30.7892 10.061 31.0009 10.5895 31 11.222V28.7794C31 29.4119 30.7882 29.9403 30.3647 30.3647C29.9412 30.7892 29.4123 31.0009 28.778 31H11.222ZM19.3125 23.3055H10.375V28.778C10.375 29.0255 10.4543 29.2285 10.6129 29.3871C10.7715 29.5457 10.9745 29.625 11.222 29.625H19.3125V23.3055ZM20.6875 23.3055V29.625H28.7794C29.026 29.625 29.2285 29.5457 29.3871 29.3871C29.5457 29.2285 29.625 29.026 29.625 28.7794V23.3055H20.6875ZM19.3125 21.9305V15.5574H10.375V21.9305H19.3125ZM20.6875 21.9305H29.625V15.5574H20.6875V21.9305ZM10.375 14.1824H29.625V11.2206C29.625 10.974 29.5457 10.7715 29.3871 10.6129C29.2285 10.4543 29.026 10.375 28.7794 10.375H11.2206C10.974 10.375 10.7715 10.4543 10.6129 10.6129C10.4543 10.7715 10.375 10.9745 10.375 11.222V14.1824Z" fill="black"/>
</svg>
