<svg width="30" height="30" viewBox="0 0 30 30" fill="none" xmlns="http://www.w3.org/2000/svg">
<path d="M9.56546 11.7394C9.0509 11.7394 8.63376 12.1566 8.63376 12.6711C8.63376 13.1857 9.0509 13.6028 9.56546 13.6028H15.7768C16.2914 13.6028 16.7085 13.1857 16.7085 12.6711C16.7085 12.1566 16.2914 11.7394 15.7768 11.7394H9.56546Z" fill="black"/>
<path fill-rule="evenodd" clip-rule="evenodd" d="M6.70649 18.5651C9.75847 21.6171 14.5778 21.8246 17.8701 19.1877L24.2748 25.5924C24.6386 25.9563 25.2286 25.9563 25.5924 25.5924C25.9563 25.2286 25.9563 24.6386 25.5924 24.2748L19.1877 17.8701C21.8246 14.5778 21.6171 9.75847 18.5651 6.70649C15.2904 3.43182 9.98116 3.43182 6.70649 6.70649C3.43182 9.98116 3.43182 15.2904 6.70649 18.5651ZM8.02411 8.02411C5.47715 10.5711 5.47715 14.7005 8.02411 17.2475C10.5692 19.7926 14.6945 19.7944 17.2419 17.2531L17.2475 17.2475L17.2531 17.2419C19.7944 14.6945 19.7926 10.5692 17.2475 8.02411C14.7005 5.47715 10.5711 5.47715 8.02411 8.02411Z" fill="black"/>
</svg>
