<svg width="30" height="30" viewBox="0 0 30 30" fill="none" xmlns="http://www.w3.org/2000/svg">
<path d="M12.6712 8.63376C13.1857 8.63376 13.6029 9.0509 13.6029 9.56546V11.7394H15.7768C16.2914 11.7394 16.7085 12.1566 16.7085 12.6711C16.7085 13.1857 16.2914 13.6028 15.7768 13.6028H13.6029V15.7768C13.6029 16.2914 13.1857 16.7085 12.6712 16.7085C12.1566 16.7085 11.7395 16.2914 11.7395 15.7768V13.6028H9.56549C9.05093 13.6028 8.63379 13.1857 8.63379 12.6711C8.63379 12.1566 9.05093 11.7394 9.56549 11.7394H11.7395V9.56546C11.7395 9.0509 12.1566 8.63376 12.6712 8.63376Z" fill="black"/>
<path fill-rule="evenodd" clip-rule="evenodd" d="M6.70652 18.5651C9.7585 21.6171 14.5778 21.8246 17.8701 19.1877L24.2748 25.5924C24.6387 25.9563 25.2286 25.9563 25.5924 25.5924C25.9563 25.2286 25.9563 24.6386 25.5924 24.2748L19.1878 17.8701C21.8247 14.5778 21.6171 9.75847 18.5651 6.70649C15.2905 3.43182 9.98119 3.43182 6.70652 6.70649C3.43185 9.98116 3.43185 15.2904 6.70652 18.5651ZM8.02414 8.02411C5.47718 10.5711 5.47718 14.7005 8.02414 17.2475C10.5692 19.7926 14.6945 19.7944 17.2419 17.2531L17.2475 17.2475L17.2531 17.2419C19.7945 14.6945 19.7926 10.5692 17.2475 8.02411C14.7006 5.47715 10.5711 5.47715 8.02414 8.02411Z" fill="black"/>
</svg>
