<svg width="40" height="40" viewBox="0 0 40 40" fill="none" xmlns="http://www.w3.org/2000/svg">
<path d="M23.2998 9C24.4892 9.00006 25.6624 9.27565 26.7274 9.80516C27.7924 10.3347 28.7203 11.1037 29.4383 12.0519C30.1563 13.0002 30.6448 14.1019 30.8656 15.2706C31.0865 16.4393 31.0335 17.6433 30.711 18.7881C30.3885 19.9329 29.8052 20.9875 29.0068 21.8691C28.2083 22.7507 27.2166 23.4353 26.1092 23.8693C25.0018 24.3033 23.8089 24.4749 22.6241 24.3706C21.4393 24.2663 20.2948 23.889 19.2802 23.2682C19.1173 23.1671 18.8997 23.2812 18.8997 23.4739V24.8165C18.8997 25.2896 18.7118 25.7433 18.3772 26.0779C18.0427 26.4124 17.589 26.6003 17.1159 26.6003H15.6888C15.3734 26.6003 15.0709 26.7256 14.8479 26.9486C14.6249 27.1717 14.4996 27.4741 14.4996 27.7895V29.2166C14.4996 29.6897 14.3117 30.1434 13.9771 30.4779C13.6426 30.8125 13.1889 31.0004 12.7158 31.0004H10.7833C10.3102 31.0004 9.85651 30.8125 9.52198 30.4779C9.18745 30.1434 8.99951 29.6897 8.99951 29.2166V26.485C8.99965 25.8542 9.25032 25.2494 9.69639 24.8034L15.1263 19.3735C15.5735 18.9263 15.734 18.2758 15.6567 17.6468C15.5226 16.5638 15.6201 15.4647 15.9429 14.4223C16.2657 13.3799 16.8064 12.4181 17.5291 11.6005C18.2518 10.7829 19.14 10.1282 20.1349 9.67989C21.1298 9.23156 22.2086 8.99981 23.2998 9Z" stroke="#9CA4BA" stroke-width="1.64944" stroke-linejoin="round"/>
<path d="M24.1622 17.9186C25.3115 17.9186 26.2433 16.9868 26.2433 15.8375C26.2433 14.6881 25.3115 13.7563 24.1622 13.7563C23.0128 13.7563 22.0811 14.6881 22.0811 15.8375C22.0811 16.9868 23.0128 17.9186 24.1622 17.9186Z" fill="#9CA4BA"/>
</svg>
