<svg width="40" height="40" viewBox="0 0 40 40" fill="none" xmlns="http://www.w3.org/2000/svg">
<path d="M10.75 11.0833C10.75 10.5421 10.8925 10.0104 11.1631 9.5417C11.4337 9.07299 11.8229 8.68377 12.2917 8.41316V29.5832C12.2917 29.9921 12.4541 30.3842 12.7432 30.6733C13.0323 30.9624 13.4244 31.1248 13.8333 31.1248H26.1666C26.5754 31.1248 26.9676 30.9624 27.2567 30.6733C27.5458 30.3842 27.7082 29.9921 27.7082 29.5832V11.0833C27.7082 10.6744 27.5458 10.2823 27.2567 9.9932C26.9676 9.70408 26.5754 9.54166 26.1666 9.54166H23.0833V8H26.1666C26.9843 8 27.7686 8.32485 28.3468 8.90308C28.925 9.48131 29.2499 10.2656 29.2499 11.0833V29.5832C29.2499 30.4009 28.925 31.1852 28.3468 31.7634C27.7686 32.3417 26.9843 32.6665 26.1666 32.6665H13.8333C13.0156 32.6665 12.2313 32.3417 11.6531 31.7634C11.0748 31.1852 10.75 30.4009 10.75 29.5832V11.0833ZM13.8333 8V18.0208C13.8333 18.1639 13.8732 18.3042 13.9484 18.426C14.0237 18.5478 14.1314 18.6462 14.2594 18.7102C14.3875 18.7742 14.5308 18.8013 14.6734 18.7885C14.8159 18.7756 14.9521 18.7233 15.0666 18.6374L17.6875 16.6718L20.3083 18.6374C20.4228 18.7233 20.559 18.7756 20.7015 18.7885C20.8441 18.8013 20.9875 18.7742 21.1155 18.7102C21.2435 18.6462 21.3512 18.5478 21.4265 18.426C21.5017 18.3042 21.5416 18.1639 21.5416 18.0208V8H13.8333ZM15.375 16.4791V9.54166H19.9999V16.4791L18.15 15.0916C18.0165 14.9915 17.8542 14.9375 17.6875 14.9375C17.5207 14.9375 17.3584 14.9915 17.225 15.0916L15.375 16.4791Z" fill="#9CA4BA"/>
</svg>
