<svg width="231" height="231" viewBox="0 0 231 231" fill="none" xmlns="http://www.w3.org/2000/svg">
<g clip-path="url(#clip0_7773_4889)">
<path d="M103.008 201.593H201.153M176.617 66.6426L188.885 78.9108M195.019 35.9721C197.438 38.3876 199.356 41.2562 200.666 44.4138C201.975 47.5714 202.648 50.9561 202.648 54.3744C202.648 57.7926 201.975 61.1773 200.666 64.3349C199.356 67.4925 197.438 70.3611 195.019 72.7767L78.4713 189.325L29.3984 201.593L41.6666 153.207L158.264 36.0211C162.859 31.403 169.024 28.6818 175.532 28.3978C182.041 28.1137 188.419 30.2875 193.4 34.4876L195.019 35.9721Z" stroke="white" stroke-opacity="0.3" stroke-width="12.2682" stroke-linecap="round" stroke-linejoin="round"/>
</g>
<defs>
<clipPath id="clip0_7773_4889">
<rect width="181.913" height="181.913" fill="white" transform="translate(24.5439 24.5437)"/>
</clipPath>
</defs>
</svg>
