<svg width="19" height="19" viewBox="0 0 19 19" fill="none" xmlns="http://www.w3.org/2000/svg">
<g clip-path="url(#clip0_7273_3474)">
<path d="M14.7303 14.7297H3.87668V6.20193H14.7303M12.4045 0.775146V2.32566H6.20245V0.775146H4.65194V2.32566H3.87668C3.01615 2.32566 2.32617 3.01563 2.32617 3.87617V14.7297C2.32617 15.141 2.48953 15.5353 2.78031 15.8261C3.07108 16.1169 3.46546 16.2802 3.87668 16.2802H14.7303C15.1415 16.2802 15.5359 16.1169 15.8266 15.8261C16.1174 15.5353 16.2808 15.141 16.2808 14.7297V3.87617C16.2808 3.46495 16.1174 3.07057 15.8266 2.77979C15.5359 2.48901 15.1415 2.32566 14.7303 2.32566H13.955V0.775146M13.1797 9.30295H9.30347V13.1792H13.1797V9.30295Z" fill="#969696"/>
</g>
<defs>
<clipPath id="clip0_7273_3474">
<rect width="18.6061" height="18.6061" fill="white"/>
</clipPath>
</defs>
</svg>
