<svg width="19" height="19" viewBox="0 0 19 19" fill="none" xmlns="http://www.w3.org/2000/svg">
<g clip-path="url(#clip0_7196_6072)">
<path d="M14.7303 14.73H3.87668V6.20218H14.7303M12.4045 0.775391V2.3259H6.20245V0.775391H4.65194V2.3259H3.87668C3.01615 2.3259 2.32617 3.01588 2.32617 3.87641V14.73C2.32617 15.1412 2.48953 15.5356 2.78031 15.8264C3.07108 16.1171 3.46546 16.2805 3.87668 16.2805H14.7303C15.1415 16.2805 15.5359 16.1171 15.8266 15.8264C16.1174 15.5356 16.2808 15.1412 16.2808 14.73V3.87641C16.2808 3.46519 16.1174 3.07081 15.8266 2.78003C15.5359 2.48926 15.1415 2.3259 14.7303 2.3259H13.955V0.775391M13.1797 9.3032H9.30347V13.1795H13.1797V9.3032Z" fill="#969696"/>
</g>
<defs>
<clipPath id="clip0_7196_6072">
<rect width="18.6061" height="18.6061" fill="white"/>
</clipPath>
</defs>
</svg>
