<svg width="36" height="36" viewBox="0 0 36 36" fill="none" xmlns="http://www.w3.org/2000/svg">
<path d="M15.75 4.125L20.0499 8.17043C20.3167 8.42148 20.3167 8.82852 20.0499 9.07957L15.75 13.125" stroke="#606060" stroke-width="1.5" stroke-linecap="round" stroke-linejoin="round"/>
<path d="M20.25 22.875L15.9501 26.9204C15.6833 27.1715 15.6833 27.5785 15.9501 27.8296L20.25 31.875" stroke="#606060" stroke-width="1.5" stroke-linecap="round" stroke-linejoin="round"/>
<path d="M20.3204 8.52781C19.5767 8.34626 18.7996 8.25 18 8.25C12.6152 8.25 8.25 12.6152 8.25 18C8.25 21.0721 9.67079 23.8123 11.8911 25.5994M24.1148 10.4054C26.3317 12.1926 27.75 14.9307 27.75 18C27.75 23.3848 23.3848 27.75 18 27.75C17.2256 27.75 16.4723 27.6597 15.75 27.4891" stroke="#606060" stroke-width="1.5" stroke-linecap="round" stroke-linejoin="round"/>
</svg>
