<svg width="40" height="40" viewBox="0 0 40 40" fill="none" xmlns="http://www.w3.org/2000/svg">
<path d="M9.99992 31.6669H16.1533V23.2052C16.1533 22.8241 16.2827 22.5047 16.5416 22.2469C16.7994 21.988 17.1188 21.8586 17.4999 21.8586H22.4999C22.881 21.8586 23.201 21.988 23.4599 22.2469C23.7177 22.5047 23.8466 22.8241 23.8466 23.2052V31.6669H29.9999V17.1802C29.9999 17.0091 29.9627 16.8536 29.8883 16.7136C29.8138 16.5736 29.7121 16.4513 29.5833 16.3469L20.6099 9.58356C20.4388 9.43467 20.2355 9.36023 19.9999 9.36023C19.7644 9.36023 19.5616 9.43467 19.3916 9.58356L10.4166 16.3469C10.2888 16.4536 10.1871 16.5758 10.1116 16.7136C10.036 16.8513 9.99881 17.0069 9.99992 17.1802V31.6669ZM8.33325 31.6669V17.1802C8.33325 16.7536 8.42881 16.3497 8.61992 15.9686C8.81103 15.5875 9.07436 15.2736 9.40992 15.0269L18.3849 8.23023C18.8549 7.87134 19.3916 7.69189 19.9949 7.69189C20.5983 7.69189 21.1383 7.87134 21.6149 8.23023L30.5899 15.0252C30.9266 15.2719 31.1899 15.5863 31.3799 15.9686C31.571 16.3497 31.6666 16.7536 31.6666 17.1802V31.6669C31.6666 32.1136 31.5005 32.503 31.1683 32.8352C30.836 33.1674 30.4466 33.3336 29.9999 33.3336H23.5266C23.1444 33.3336 22.8244 33.2047 22.5666 32.9469C22.3088 32.688 22.1799 32.368 22.1799 31.9869V23.5269H17.8199V31.9869C17.8199 32.3691 17.691 32.6891 17.4333 32.9469C17.1755 33.2047 16.856 33.3336 16.4749 33.3336H9.99992C9.55325 33.3336 9.16381 33.1674 8.83158 32.8352C8.49936 32.503 8.33325 32.1136 8.33325 31.6669Z" fill="#9CA4BA"/>
</svg>
