<svg width="40" height="40" viewBox="0 0 40 40" fill="none" xmlns="http://www.w3.org/2000/svg">
<path d="M9.0509 30.2226C8.66987 30.3635 8.31613 30.3219 7.98968 30.0976C7.66323 29.8734 7.5 29.5573 7.5 29.1495V10.9465C7.5 10.6806 7.5645 10.4379 7.69349 10.2187C7.82248 9.99937 8.01002 9.84706 8.2561 9.76172L14.1472 7.75984C14.4121 7.6745 14.677 7.63184 14.942 7.63184C15.2069 7.63184 15.4723 7.6745 15.7382 7.75984L23.8723 10.6086L29.7633 8.33138C30.1444 8.18949 30.4981 8.21628 30.8246 8.41175C31.151 8.60723 31.3142 8.89895 31.3142 9.28693V18.5343C31.3142 18.7456 31.2428 18.9223 31.0999 19.0642C30.957 19.2061 30.7799 19.2775 30.5686 19.2785C30.3572 19.2795 30.1806 19.208 30.0387 19.0642C29.8968 18.9203 29.8259 18.7437 29.8259 18.5343V9.89865L24.6165 11.841V16.1335C24.6165 16.3439 24.545 16.5205 24.4022 16.6634C24.2593 16.8063 24.0822 16.8777 23.8708 16.8777C23.6595 16.8777 23.4828 16.8063 23.3409 16.6634C23.199 16.5205 23.1281 16.3439 23.1281 16.1335V11.8395L15.6861 9.24079V26.4228C15.6861 26.8038 15.5795 27.1446 15.3661 27.4453C15.1538 27.745 14.875 27.9652 14.5297 28.1061L9.0509 30.2226ZM8.98839 28.6524L14.1978 26.655V9.24079L8.98839 11.0149V28.6524ZM25.1925 28.5199C26.1669 28.5199 26.981 28.2004 27.6349 27.5614C28.2888 26.9224 28.6183 26.0973 28.6232 25.0862C28.6292 24.1088 28.3027 23.2922 27.6439 22.6363C26.984 21.9794 26.1669 21.651 25.1925 21.651C24.2191 21.651 23.4025 21.9804 22.7426 22.6393C22.0828 23.2981 21.7533 24.1153 21.7543 25.0907C21.7553 26.066 22.0847 26.8812 22.7426 27.5361C23.4005 28.191 24.2171 28.5179 25.1925 28.5199ZM25.1895 30.0098C23.8351 30.0098 22.6761 29.528 21.7126 28.5646C20.7482 27.6011 20.2659 26.4426 20.2659 25.0892C20.2659 23.7357 20.7477 22.5763 21.7112 21.6108C22.6746 20.6453 23.8331 20.1626 25.1865 20.1626C26.54 20.1626 27.6989 20.6448 28.6634 21.6093C29.6279 22.5738 30.1106 23.7327 30.1116 25.0862C30.1116 25.6359 30.0293 26.1558 29.8646 26.646C29.6988 27.1362 29.4607 27.5857 29.1501 27.9945L32.2757 31.1201C32.4147 31.259 32.4891 31.4297 32.499 31.6321C32.5089 31.8346 32.4444 32.0102 32.3055 32.159C32.1666 32.3079 31.9905 32.3773 31.7771 32.3674C31.5638 32.3575 31.3887 32.2831 31.2517 32.1441L28.1261 29.0185C27.7173 29.3489 27.2683 29.597 26.7791 29.7627C26.2889 29.9264 25.7586 30.0083 25.188 30.0083" fill="#9CA4BA"/>
</svg>
