<svg width="38" height="28" viewBox="0 0 38 28" fill="none" xmlns="http://www.w3.org/2000/svg">
<path fill-rule="evenodd" clip-rule="evenodd" d="M16.3687 19.2854C16.027 19.6271 15.473 19.6271 15.1313 19.2854L10.4646 14.6187C10.1229 14.277 10.1229 13.723 10.4646 13.3813L15.1313 8.71461C15.473 8.3729 16.027 8.3729 16.3687 8.71461C16.7104 9.05631 16.7104 9.61033 16.3687 9.95204L12.3208 14L16.3687 18.0479C16.7104 18.3896 16.7104 18.9437 16.3687 19.2854Z" fill="#2E6FF2"/>
<path fill-rule="evenodd" clip-rule="evenodd" d="M26.3687 19.2854C26.027 19.6271 25.473 19.6271 25.1313 19.2854L20.4646 14.6187C20.1229 14.277 20.1229 13.723 20.4646 13.3813L25.1313 8.71461C25.473 8.3729 26.027 8.3729 26.3687 8.71461C26.7104 9.05631 26.7104 9.61033 26.3687 9.95204L22.3208 14L26.3687 18.0479C26.7104 18.3896 26.7104 18.9437 26.3687 19.2854Z" fill="#2E6FF2"/>
</svg>
