<svg width="19" height="19" viewBox="0 0 19 19" fill="none" xmlns="http://www.w3.org/2000/svg">
<path d="M2.32604 14.7298C2.10638 14.7298 1.92239 14.6554 1.77406 14.5065C1.62573 14.3577 1.5513 14.1737 1.55078 13.9546C1.55027 13.7354 1.62469 13.5514 1.77406 13.4026C1.92342 13.2537 2.10742 13.1793 2.32604 13.1793H8.52808C8.74774 13.1793 8.93199 13.2537 9.08084 13.4026C9.22969 13.5514 9.30385 13.7354 9.30334 13.9546C9.30282 14.1737 9.22839 14.3579 9.08006 14.5073C8.93173 14.6567 8.74774 14.7308 8.52808 14.7298H2.32604ZM2.32604 10.8535C2.10638 10.8535 1.92239 10.7791 1.77406 10.6303C1.62573 10.4814 1.5513 10.2974 1.55078 10.0783C1.55027 9.85914 1.62469 9.67514 1.77406 9.52629C1.92342 9.37744 2.10742 9.30302 2.32604 9.30302H4.6518C4.87146 9.30302 5.05571 9.37744 5.20456 9.52629C5.35341 9.67514 5.42758 9.85914 5.42706 10.0783C5.42654 10.2974 5.35212 10.4817 5.20379 10.631C5.05545 10.7804 4.87146 10.8546 4.6518 10.8535H2.32604ZM2.32604 6.97725C2.10638 6.97725 1.92239 6.90283 1.77406 6.75398C1.62573 6.60513 1.5513 6.42114 1.55078 6.202C1.55027 5.98286 1.62469 5.79887 1.77406 5.65002C1.92342 5.50117 2.10742 5.42674 2.32604 5.42674H4.6518C4.87146 5.42674 5.05571 5.50117 5.20456 5.65002C5.35341 5.79887 5.42758 5.98286 5.42706 6.202C5.42654 6.42114 5.35212 6.60539 5.20379 6.75476C5.05545 6.90412 4.87146 6.97829 4.6518 6.97725H2.32604ZM10.8538 12.404C9.78141 12.404 8.86738 12.026 8.11177 11.2698C7.35615 10.5137 6.97809 9.59968 6.97757 8.52777C6.97705 7.45585 7.35512 6.54182 8.11177 5.78569C8.86842 5.02956 9.78244 4.65149 10.8538 4.65149C11.9252 4.65149 12.8395 5.02956 13.5967 5.78569C14.3539 6.54182 14.7317 7.45585 14.7301 8.52777C14.7301 8.90247 14.6751 9.27408 14.565 9.64258C14.4549 10.0111 14.2903 10.3501 14.0712 10.6597L16.5132 13.1018C16.6553 13.2439 16.7264 13.4248 16.7264 13.6444C16.7264 13.8641 16.6553 14.045 16.5132 14.1871C16.3711 14.3293 16.1902 14.4003 15.9705 14.4003C15.7509 14.4003 15.57 14.3293 15.4279 14.1871L12.9858 11.7451C12.6757 11.9647 12.3367 12.1296 11.9687 12.2397C11.6007 12.3498 11.2291 12.4046 10.8538 12.404ZM10.8538 10.8535C11.4999 10.8535 12.049 10.6274 12.5013 10.1752C12.9535 9.72295 13.1796 9.17381 13.1796 8.52777C13.1796 7.88172 12.9535 7.33258 12.5013 6.88035C12.049 6.42812 11.4999 6.202 10.8538 6.202C10.2078 6.202 9.65866 6.42812 9.20643 6.88035C8.7542 7.33258 8.52808 7.88172 8.52808 8.52777C8.52808 9.17381 8.7542 9.72295 9.20643 10.1752C9.65866 10.6274 10.2078 10.8535 10.8538 10.8535Z" fill="#969696"/>
</svg>
