<svg width="19" height="19" viewBox="0 0 19 19" fill="none" xmlns="http://www.w3.org/2000/svg">
<path d="M2.32604 14.7297C2.10638 14.7297 1.92239 14.6553 1.77406 14.5064C1.62573 14.3576 1.5513 14.1736 1.55078 13.9544C1.55027 13.7353 1.62469 13.5513 1.77406 13.4024C1.92342 13.2536 2.10742 13.1792 2.32604 13.1792H8.52808C8.74774 13.1792 8.93199 13.2536 9.08084 13.4024C9.22969 13.5513 9.30385 13.7353 9.30334 13.9544C9.30282 14.1736 9.22839 14.3578 9.08006 14.5072C8.93173 14.6566 8.74774 14.7307 8.52808 14.7297H2.32604ZM2.32604 10.8534C2.10638 10.8534 1.92239 10.779 1.77406 10.6301C1.62573 10.4813 1.5513 10.2973 1.55078 10.0782C1.55027 9.85901 1.62469 9.67502 1.77406 9.52617C1.92342 9.37732 2.10742 9.3029 2.32604 9.3029H4.6518C4.87146 9.3029 5.05571 9.37732 5.20456 9.52617C5.35341 9.67502 5.42758 9.85901 5.42706 10.0782C5.42654 10.2973 5.35212 10.4815 5.20379 10.6309C5.05545 10.7803 4.87146 10.8544 4.6518 10.8534H2.32604ZM2.32604 6.97713C2.10638 6.97713 1.92239 6.90271 1.77406 6.75386C1.62573 6.60501 1.5513 6.42102 1.55078 6.20188C1.55027 5.98274 1.62469 5.79874 1.77406 5.6499C1.92342 5.50105 2.10742 5.42662 2.32604 5.42662H4.6518C4.87146 5.42662 5.05571 5.50105 5.20456 5.6499C5.35341 5.79874 5.42758 5.98274 5.42706 6.20188C5.42654 6.42102 5.35212 6.60527 5.20379 6.75463C5.05545 6.904 4.87146 6.97817 4.6518 6.97713H2.32604ZM10.8538 12.4039C9.78141 12.4039 8.86738 12.0259 8.11177 11.2697C7.35615 10.5136 6.97809 9.59956 6.97757 8.52764C6.97705 7.45572 7.35512 6.5417 8.11177 5.78557C8.86842 5.02943 9.78244 4.65137 10.8538 4.65137C11.9252 4.65137 12.8395 5.02943 13.5967 5.78557C14.3539 6.5417 14.7317 7.45572 14.7301 8.52764C14.7301 8.90235 14.6751 9.27395 14.565 9.64246C14.4549 10.011 14.2903 10.35 14.0712 10.6596L16.5132 13.1016C16.6553 13.2438 16.7264 13.4247 16.7264 13.6443C16.7264 13.864 16.6553 14.0449 16.5132 14.187C16.3711 14.3291 16.1902 14.4002 15.9705 14.4002C15.7509 14.4002 15.57 14.3291 15.4279 14.187L12.9858 11.745C12.6757 11.9646 12.3367 12.1295 11.9687 12.2396C11.6007 12.3497 11.2291 12.4044 10.8538 12.4039ZM10.8538 10.8534C11.4999 10.8534 12.049 10.6273 12.5013 10.1751C12.9535 9.72283 13.1796 9.17369 13.1796 8.52764C13.1796 7.8816 12.9535 7.33246 12.5013 6.88023C12.049 6.42799 11.4999 6.20188 10.8538 6.20188C10.2078 6.20188 9.65866 6.42799 9.20643 6.88023C8.7542 7.33246 8.52808 7.8816 8.52808 8.52764C8.52808 9.17369 8.7542 9.72283 9.20643 10.1751C9.65866 10.6273 10.2078 10.8534 10.8538 10.8534Z" fill="#969696"/>
</svg>
