<svg width="44" height="44" viewBox="0 0 44 44" fill="none" xmlns="http://www.w3.org/2000/svg">
<path d="M14.5553 4.49901C14.0397 5.01471 13.7501 5.71406 13.7501 6.44326C13.7501 7.17246 14.0397 7.87181 14.5553 8.38751L28.1678 22L14.5553 35.6125C14.0543 36.1312 13.7771 36.8258 13.7834 37.5469C13.7897 38.2679 14.0789 38.9576 14.5888 39.4675C15.0986 39.9774 15.7884 40.2666 16.5094 40.2729C17.2304 40.2791 17.9251 40.0019 18.4438 39.501L34.0005 23.9443C34.516 23.4286 34.8057 22.7292 34.8057 22C34.8057 21.2708 34.516 20.5715 34.0005 20.0558L18.4438 4.49901C17.928 3.98347 17.2287 3.69385 16.4995 3.69385C15.7703 3.69385 15.071 3.98347 14.5553 4.49901Z" fill="white"/>
</svg>
