<svg width="38" height="28" viewBox="0 0 38 28" fill="none" xmlns="http://www.w3.org/2000/svg">
<path fill-rule="evenodd" clip-rule="evenodd" d="M21.6313 8.71463C21.973 8.37292 22.527 8.37292 22.8687 8.71463L27.5354 13.3813C27.8771 13.723 27.8771 14.277 27.5354 14.6187L22.8687 19.2854C22.527 19.6271 21.973 19.6271 21.6313 19.2854C21.2896 18.9437 21.2896 18.3897 21.6313 18.048L25.6792 14L21.6313 9.95206C21.2896 9.61035 21.2896 9.05633 21.6313 8.71463Z" fill="#2E6FF2"/>
<path fill-rule="evenodd" clip-rule="evenodd" d="M11.6313 8.71463C11.973 8.37292 12.527 8.37292 12.8687 8.71463L17.5354 13.3813C17.8771 13.723 17.8771 14.277 17.5354 14.6187L12.8687 19.2854C12.527 19.6271 11.973 19.6271 11.6313 19.2854C11.2896 18.9437 11.2896 18.3897 11.6313 18.048L15.6792 14L11.6313 9.95206C11.2896 9.61035 11.2896 9.05633 11.6313 8.71463Z" fill="#2E6FF2"/>
</svg>
