<svg width="40" height="40" viewBox="0 0 40 40" fill="none" xmlns="http://www.w3.org/2000/svg">
<path d="M24.8083 31.6668C24.5706 31.6668 24.3722 31.5874 24.2133 31.4285C24.0533 31.2696 23.9733 31.0713 23.9733 30.8335C23.9733 30.1435 24.4567 29.5546 25.4233 29.0668C26.3889 28.5779 27.7433 28.3335 29.4867 28.3335C31.23 28.3335 32.585 28.5779 33.5517 29.0668C34.5183 29.5557 35.0011 30.1446 35 30.8335C35 31.0713 34.9206 31.2696 34.7617 31.4285C34.6028 31.5874 34.4044 31.6668 34.1667 31.6668H24.8083ZM29.4867 25.6402C28.7844 25.6402 28.1922 25.3996 27.71 24.9185C27.2278 24.4363 26.9867 23.8435 26.9867 23.1402C26.9867 22.4379 27.2278 21.8457 27.71 21.3635C28.1922 20.8813 28.7844 20.6402 29.4867 20.6402C30.1889 20.6402 30.7817 20.8813 31.265 21.3635C31.7461 21.8457 31.9867 22.4379 31.9867 23.1402C31.9867 23.8424 31.7461 24.4352 31.265 24.9185C30.7828 25.3996 30.19 25.6402 29.4867 25.6402ZM6.66667 30.0002V10.0002V17.3918V16.6668V30.0002ZM7.69333 31.6668C6.92556 31.6668 6.285 31.4102 5.77167 30.8968C5.25833 30.3835 5.00111 29.7424 5 28.9735V11.0268C5 10.2591 5.25722 9.6185 5.77167 9.10516C6.28611 8.59183 6.92611 8.33461 7.69167 8.3335H14.875C15.2339 8.3335 15.5828 8.40572 15.9217 8.55016C16.2606 8.69683 16.5506 8.89072 16.7917 9.13183L19.3267 11.6668H32.3083C33.075 11.6668 33.7156 11.9241 34.23 12.4385C34.7444 12.9529 35.0011 13.5935 35 14.3602V17.7252C35 17.9618 34.9206 18.1596 34.7617 18.3185C34.6028 18.4774 34.4044 18.5574 34.1667 18.5585C33.9289 18.5596 33.7306 18.4796 33.5717 18.3185C33.4128 18.1574 33.3333 17.9596 33.3333 17.7252V14.3585C33.3333 14.0596 33.2372 13.8141 33.045 13.6218C32.8528 13.4296 32.6072 13.3335 32.3083 13.3335H18.6583L15.325 10.0002H7.69167C7.39278 10.0002 7.14722 10.0963 6.955 10.2885C6.76278 10.4807 6.66667 10.7268 6.66667 11.0268V28.9752C6.66667 29.2741 6.76278 29.5196 6.955 29.7118C7.14722 29.9041 7.39333 30.0002 7.69333 30.0002H19.6483C19.885 30.0002 20.0828 30.0796 20.2417 30.2385C20.4006 30.3974 20.4806 30.5957 20.4817 30.8335C20.4828 31.0713 20.4028 31.2696 20.2417 31.4285C20.0806 31.5874 19.8828 31.6668 19.6483 31.6668H7.69333Z" fill="#2E6FF2"/>
</svg>
