<svg width="153" height="77" viewBox="0 0 153 77" fill="none" xmlns="http://www.w3.org/2000/svg">
<path d="M74.25 26.625V0.75H0.75V76.125H74.25V66" stroke="white" stroke-width="1.5"/>
<path d="M72.7833 61.3967H71.9317V52.4367H72.7833V61.3967ZM68.8633 60.02C69.2678 60.02 69.6722 59.9811 70.0767 59.9033C70.4811 59.8256 70.8117 59.7206 71.0683 59.5883V60.405C70.8117 60.545 70.485 60.6539 70.0883 60.7317C69.6917 60.8017 69.2833 60.8367 68.8633 60.8367H65.3867V52.7867H70.3917V53.6033H66.2267V56.3333H70.24V57.1383H66.2267V60.02H68.8633ZM77.6938 54.7117C77.6704 55.4117 77.5888 56.1156 77.4488 56.8233L80.2488 60.2533L79.6421 60.825L77.1688 57.78C76.881 58.6667 76.4921 59.3744 76.0021 59.9033C75.5121 60.4244 74.9482 60.7356 74.3104 60.8367V59.9733C74.7927 59.8722 75.2165 59.5844 75.5821 59.11C75.9554 58.6356 76.2471 58.0172 76.4571 57.255C76.6749 56.4928 76.8071 55.645 76.8538 54.7117H74.4504V53.895H76.8538V52.4133H77.7054V53.895H79.9921V54.7117H77.6938ZM82.0221 61.3967H81.1704V52.4367H82.0221V61.3967ZM91.8442 58.0133H83.3509V57.255H87.1775V56.065H83.9925V52.565H91.2142V56.065H88.0175V57.255H91.8442V58.0133ZM90.3742 55.33V53.3H84.8325V55.33H90.3742ZM91.3892 60.4983V61.2683H83.9692V58.76H84.8209V60.4983H91.3892ZM102.807 61.3967H101.955V52.4367H102.807V61.3967ZM98.6534 52.6933C98.6379 54.1089 98.5173 55.3494 98.2918 56.415L101.103 60.3L100.427 60.8133L98.0234 57.4417C97.7201 58.4606 97.3157 59.2656 96.8101 59.8567C96.3123 60.44 95.7329 60.7667 95.0718 60.8367V59.9617C95.6473 59.8606 96.1373 59.4756 96.5418 58.8067C96.9462 58.13 97.2534 57.2589 97.4634 56.1933C97.6734 55.1278 97.7823 53.9533 97.7901 52.67L98.6534 52.6933ZM111.276 54.3383H109.724L109.666 53.545H111.276V52.4367H112.104V59.11H111.276V56.7533H109.666L109.724 55.96H111.276V54.3383ZM109.444 55.1317C109.444 55.6294 109.339 56.0767 109.129 56.4733C108.919 56.8622 108.616 57.1694 108.219 57.395C107.83 57.6128 107.367 57.7217 106.831 57.7217C106.302 57.7217 105.839 57.6128 105.442 57.395C105.046 57.1694 104.742 56.8622 104.532 56.4733C104.322 56.0767 104.217 55.6294 104.217 55.1317C104.217 54.6339 104.322 54.1906 104.532 53.8017C104.742 53.405 105.046 53.0978 105.442 52.88C105.839 52.6544 106.302 52.5417 106.831 52.5417C107.367 52.5417 107.83 52.6544 108.219 52.88C108.616 53.0978 108.919 53.405 109.129 53.8017C109.339 54.1906 109.444 54.6339 109.444 55.1317ZM105.057 55.1317C105.057 55.6917 105.217 56.1389 105.536 56.4733C105.862 56.8 106.294 56.9633 106.831 56.9633C107.375 56.9633 107.807 56.8 108.126 56.4733C108.444 56.1389 108.604 55.6917 108.604 55.1317C108.604 54.5717 108.444 54.1244 108.126 53.79C107.807 53.4556 107.375 53.2883 106.831 53.2883C106.294 53.2883 105.862 53.4556 105.536 53.79C105.217 54.1244 105.057 54.5717 105.057 55.1317ZM112.302 61.2567H105.034V58.3633H105.886V60.4517H112.302V61.2567ZM124.175 60.9417H115.681V60.1133H119.496V57.955H116.276V52.7167H117.105V54.42H122.751V52.7167H123.58V57.955H120.348V60.1133H124.175V60.9417ZM122.751 57.1617V55.2133H117.105V57.1617H122.751ZM132.889 61.3967H132.049V57.01H130.322V56.1467H132.049V52.4367H132.889V61.3967ZM128.654 60.0317C129.058 60.0317 129.459 59.9928 129.855 59.915C130.26 59.8372 130.594 59.7361 130.859 59.6117V60.405C130.602 60.545 130.271 60.6539 129.867 60.7317C129.462 60.8017 129.046 60.8367 128.619 60.8367H125.399V56.3683H128.875V53.5917H125.375V52.7867H129.715V57.1617H126.239V60.0317H128.654ZM141.824 56.9867V61.3967H140.984V52.4367H141.824V56.1467H143.061V56.9867H141.824ZM139.082 52.7867V54.8867C139.082 56.0689 138.9 57.1072 138.534 58.0017C138.168 58.8961 137.64 59.5883 136.947 60.0783C136.255 60.5683 135.435 60.8133 134.486 60.8133V59.9733C135.271 59.9733 135.944 59.7672 136.504 59.355C137.072 58.9428 137.503 58.3556 137.799 57.5933C138.095 56.8311 138.242 55.9406 138.242 54.9217V53.5917H134.486V52.7867H139.082ZM150.456 61.3967V52.4367H151.308V61.3967H150.456ZM148.508 54.8867C148.508 56.0767 148.317 57.1189 147.936 58.0133C147.555 58.9 147.011 59.5883 146.303 60.0783C145.603 60.5683 144.774 60.8133 143.818 60.8133V59.9733C144.603 59.9733 145.284 59.7672 145.859 59.355C146.435 58.9428 146.874 58.3594 147.178 57.605C147.489 56.8428 147.644 55.9483 147.644 54.9217V53.5917H143.818V52.7867H148.508V54.8867Z" fill="white"/>
<path d="M74.4 45.01H73.305V33.49H74.4V45.01ZM69.06 33.82C69.04 35.64 68.885 37.235 68.595 38.605L72.21 43.6L71.34 44.26L68.25 39.925C67.86 41.235 67.34 42.27 66.69 43.03C66.05 43.78 65.305 44.2 64.455 44.29V43.165C65.195 43.035 65.825 42.54 66.345 41.68C66.865 40.81 67.26 39.69 67.53 38.32C67.8 36.95 67.94 35.44 67.95 33.79L69.06 33.82ZM85.2884 35.935H83.2934L83.2184 34.915H85.2884V33.49H86.3534V42.07H85.2884V39.04H83.2184L83.2934 38.02H85.2884V35.935ZM82.9334 36.955C82.9334 37.595 82.7984 38.17 82.5284 38.68C82.2584 39.18 81.8684 39.575 81.3584 39.865C80.8584 40.145 80.2634 40.285 79.5734 40.285C78.8934 40.285 78.2984 40.145 77.7884 39.865C77.2784 39.575 76.8884 39.18 76.6184 38.68C76.3484 38.17 76.2134 37.595 76.2134 36.955C76.2134 36.315 76.3484 35.745 76.6184 35.245C76.8884 34.735 77.2784 34.34 77.7884 34.06C78.2984 33.77 78.8934 33.625 79.5734 33.625C80.2634 33.625 80.8584 33.77 81.3584 34.06C81.8684 34.34 82.2584 34.735 82.5284 35.245C82.7984 35.745 82.9334 36.315 82.9334 36.955ZM77.2934 36.955C77.2934 37.675 77.4984 38.25 77.9084 38.68C78.3284 39.1 78.8834 39.31 79.5734 39.31C80.2734 39.31 80.8284 39.1 81.2384 38.68C81.6484 38.25 81.8534 37.675 81.8534 36.955C81.8534 36.235 81.6484 35.66 81.2384 35.23C80.8284 34.8 80.2734 34.585 79.5734 34.585C78.8834 34.585 78.3284 34.8 77.9084 35.23C77.4984 35.66 77.2934 36.235 77.2934 36.955ZM86.6084 44.83H77.2634V41.11H78.3584V43.795H86.6084V44.83Z" fill="white"/>
<path d="M20.5312 45.5391V31.7109C20.5312 30.733 20.9198 29.795 21.6113 29.1035C22.3028 28.4119 23.2408 28.0234 24.2187 28.0234H39.8906C40.8686 28.0234 41.8065 28.4119 42.4981 29.1035C43.1896 29.795 43.5781 30.733 43.5781 31.7109V45.5391C43.5781 46.517 43.1896 47.455 42.4981 48.1465C41.8065 48.8381 40.8686 49.2266 39.8906 49.2266H24.2187C23.2408 49.2266 22.3028 48.8381 21.6113 48.1465C20.9198 47.455 20.5312 46.517 20.5312 45.5391ZM52.1847 29.3897L44.8097 35.9589C44.7125 36.0453 44.6347 36.1511 44.5813 36.2697C44.5279 36.3882 44.5002 36.5167 44.5 36.6467V39.9248C44.5002 40.0548 44.5279 40.1833 44.5813 40.3018C44.6347 40.4204 44.7125 40.5262 44.8097 40.6126L52.1847 47.1818C52.3176 47.2998 52.4818 47.3769 52.6574 47.4038C52.8331 47.4307 53.0128 47.4062 53.1748 47.3334C53.3369 47.2605 53.4745 47.1423 53.571 46.9931C53.6675 46.8439 53.7188 46.67 53.7188 46.4923V30.0792C53.7188 29.9015 53.6675 29.7276 53.571 29.5784C53.4745 29.4292 53.3369 29.311 53.1748 29.2381C53.0128 29.1653 52.8331 29.1408 52.6574 29.1677C52.4818 29.1946 52.3176 29.2717 52.1847 29.3897Z" stroke="white" stroke-width="1.5" stroke-linecap="round" stroke-linejoin="round"/>
</svg>
