<svg width="200" height="31" viewBox="0 0 200 31" fill="none" xmlns="http://www.w3.org/2000/svg">
<path d="M0 8.30937V3.9458H18.5876V8.30937H11.6587V28.9782H6.92891V8.30937H0ZM26.8343 29.3448C25.0883 29.3448 23.5853 28.9537 22.3255 28.1714C21.0731 27.381 20.108 26.2647 19.4302 24.8224C18.7524 23.372 18.4135 21.6567 18.4135 19.6766C18.4135 17.7454 18.7524 16.0505 19.4302 14.5919C20.108 13.1333 21.062 11.9966 22.2924 11.1817C23.5301 10.3669 24.9814 9.95944 26.6464 9.95944C27.7663 9.95944 28.8087 10.1591 29.7738 10.5584C30.7464 10.9495 31.5935 11.5403 32.3155 12.3307C33.0449 13.1211 33.6122 14.1152 34.0174 15.313C34.4225 16.5027 34.6251 17.8961 34.6251 19.4933V20.9233H20.2922V17.6965H30.1937C30.1937 16.9468 30.0465 16.2827 29.7517 15.7042C29.457 15.1256 29.0481 14.6734 28.5251 14.3474C28.0094 14.0134 27.4089 13.8463 26.7238 13.8463C26.0092 13.8463 25.3756 14.0296 24.823 14.3963C24.2778 14.7549 23.8505 15.2397 23.5411 15.8508C23.2317 16.4538 23.0733 17.1261 23.0659 17.8676V20.9355C23.0659 21.8645 23.2207 22.6671 23.5301 23.3435C23.8469 24.0198 24.2926 24.5413 24.8672 24.908C25.4419 25.2747 26.1233 25.458 26.9117 25.458C27.4347 25.458 27.9136 25.3765 28.3483 25.2135C28.7829 25.0506 29.155 24.8061 29.4644 24.4802C29.7738 24.1542 30.0096 23.7549 30.1716 23.2823L34.5259 23.6001C34.3046 24.7572 33.8515 25.7676 33.1666 26.6314C32.4888 27.487 31.6118 28.1552 30.5364 28.6359C29.4681 29.1085 28.2341 29.3448 26.8343 29.3448ZM42.5375 29.3326C41.4546 29.3326 40.4896 29.1248 39.6422 28.7093C38.7951 28.2855 38.1245 27.6622 37.6309 26.8392C37.1449 26.008 36.9015 24.9731 36.9015 23.7346C36.9015 22.6915 37.0748 21.8156 37.4209 21.1067C37.7672 20.3977 38.2387 19.8273 38.8356 19.3955C39.4324 18.9636 40.1102 18.6377 40.8689 18.4176C41.635 18.1976 42.4382 18.0428 43.2781 17.9532C44.2653 17.8391 45.061 17.7331 45.665 17.6354C46.269 17.5295 46.7075 17.3746 46.9801 17.1709C47.2527 16.9672 47.389 16.6657 47.389 16.2664V16.1931C47.389 15.419 47.1681 14.8201 46.7258 14.3963C46.2911 13.9726 45.6725 13.7608 44.8693 13.7608C44.0222 13.7608 43.3479 13.9685 42.8471 14.3841C42.3461 14.7915 42.0144 15.3049 41.8526 15.9242L37.4984 15.5331C37.7193 14.3923 38.1541 13.4063 38.8023 12.5751C39.4508 11.7358 40.287 11.0921 41.3108 10.6439C42.3424 10.1876 43.5358 9.95944 44.8914 9.95944C45.8343 9.95944 46.7371 10.0817 47.5987 10.3261C48.4682 10.5706 49.2381 10.9495 49.9084 11.4628C50.5862 11.9762 51.1205 12.6362 51.5108 13.443C51.9013 14.2415 52.0967 15.199 52.0967 16.3153V28.9782H47.632V26.3747H47.4995C47.2269 26.9614 46.8622 27.4788 46.4053 27.927C45.9485 28.367 45.3999 28.7133 44.7588 28.9659C44.1177 29.2104 43.3774 29.3326 42.5375 29.3326ZM43.8859 25.7391C44.5783 25.7391 45.1898 25.5884 45.7204 25.2869C46.2507 24.9772 46.667 24.5617 46.9689 24.0401C47.2711 23.5186 47.422 22.9279 47.422 22.2678V20.2755C47.2748 20.3814 47.0722 20.4792 46.8142 20.5689C46.5637 20.6503 46.2802 20.7277 45.9634 20.8011C45.6466 20.8663 45.3298 20.9274 45.013 20.9844C44.6963 21.0333 44.409 21.0781 44.151 21.1189C43.5984 21.2085 43.116 21.3511 42.7034 21.5467C42.2907 21.7423 41.9702 22.0071 41.7418 22.3412C41.5137 22.6671 41.3995 23.0745 41.3995 23.5635C41.3995 24.2724 41.6313 24.8143 42.0956 25.1891C42.5671 25.5558 43.1639 25.7391 43.8859 25.7391ZM63.4182 29.3448C61.6796 29.3448 60.184 28.9374 58.9314 28.1226C57.6864 27.2996 56.7288 26.1588 56.0582 24.7002C55.3954 23.2416 55.0636 21.563 55.0636 19.6644C55.0636 17.7413 55.3991 16.0546 56.0694 14.6041C56.7472 13.1455 57.7085 12.0088 58.9535 11.194C60.1986 10.371 61.6796 9.95944 63.3961 9.95944C64.8768 9.95944 66.1735 10.2569 67.286 10.8517C68.3986 11.4466 69.2789 12.2818 69.9271 13.3574C70.5757 14.433 70.9329 15.696 70.9992 17.1465H66.5566C66.4315 16.2094 66.0998 15.4556 65.562 14.8852C65.0318 14.3067 64.3353 14.0174 63.4736 14.0174C62.7442 14.0174 62.1069 14.2374 61.5617 14.6775C61.0239 15.1093 60.6038 15.7408 60.3019 16.572C59.9998 17.4031 59.8489 18.4095 59.8489 19.591C59.8489 20.7889 59.996 21.8075 60.2907 22.6467C60.5929 23.4861 61.0164 24.1257 61.5617 24.5657C62.1069 25.0057 62.7442 25.2258 63.4736 25.2258C64.0114 25.2258 64.4937 25.1035 64.9213 24.8591C65.3557 24.6146 65.7133 24.2601 65.993 23.7957C66.2803 23.3231 66.4682 22.7567 66.5566 22.0967H70.9992C70.9254 23.5309 70.5719 24.7939 69.9383 25.8858C69.3119 26.9695 68.4465 27.817 67.3414 28.4281C66.2361 29.0393 64.9284 29.3448 63.4182 29.3448ZM78.7208 18.1243V28.9782H74.0131V3.9458H78.5882V13.5163H78.7871C79.1702 12.4081 79.7891 11.5403 80.6437 10.9128C81.4985 10.2772 82.5703 9.95944 83.8595 9.95944C85.0383 9.95944 86.0662 10.2446 86.9428 10.815C87.827 11.3773 88.5119 12.1881 88.9983 13.2474C89.4918 14.2986 89.7349 15.5575 89.7277 17.0242V28.9782H85.02V17.9532C85.0271 16.7961 84.762 15.8957 84.2243 15.2519C83.6937 14.6082 82.9496 14.2863 81.9921 14.2863C81.351 14.2863 80.7837 14.4371 80.2902 14.7386C79.8038 15.0401 79.4207 15.4801 79.1409 16.0586C78.8683 16.629 78.7283 17.3176 78.7208 18.1243ZM136.735 3.9458H142.636L148.869 20.7644H149.134L155.367 3.9458H161.268V28.9782H156.627V12.6851H156.439L150.582 28.8559H147.422L141.565 12.624H141.377V28.9782H136.735V3.9458ZM172.792 29.3448C171.075 29.3448 169.59 28.9415 168.338 28.1348C167.093 27.3199 166.131 26.1873 165.454 24.7369C164.776 23.2783 164.437 21.5874 164.437 19.6644C164.437 17.725 164.776 16.0301 165.454 14.5797C166.131 13.1211 167.093 11.9884 168.338 11.1817C169.59 10.3669 171.075 9.95944 172.792 9.95944C174.508 9.95944 175.989 10.3669 177.234 11.1817C178.486 11.9884 179.451 13.1211 180.129 14.5797C180.807 16.0301 181.146 17.725 181.146 19.6644C181.146 21.5874 180.807 23.2783 180.129 24.7369C179.451 26.1873 178.486 27.3199 177.234 28.1348C175.989 28.9415 174.508 29.3448 172.792 29.3448ZM172.814 25.3113C173.594 25.3113 174.246 25.0669 174.77 24.5779C175.293 24.0809 175.687 23.4045 175.952 22.5489C176.225 21.6933 176.361 20.7196 176.361 19.6277C176.361 18.5358 176.225 17.562 175.952 16.7064C175.687 15.8508 175.293 15.1745 174.77 14.6775C174.246 14.1804 173.594 13.9319 172.814 13.9319C172.025 13.9319 171.362 14.1804 170.825 14.6775C170.294 15.1745 169.893 15.8508 169.62 16.7064C169.355 17.562 169.222 18.5358 169.222 19.6277C169.222 20.7196 169.355 21.6933 169.62 22.5489C169.893 23.4045 170.294 24.0809 170.825 24.5779C171.362 25.0669 172.025 25.3113 172.814 25.3113ZM188.915 18.1243V28.9782H184.207V10.2039H188.694V13.5163H188.893C189.268 12.4244 189.898 11.5606 190.782 10.925C191.666 10.2813 192.738 9.95944 193.998 9.95944C195.177 9.95944 196.205 10.2446 197.081 10.815C197.958 11.3854 198.64 12.2003 199.126 13.2596C199.612 14.3108 199.855 15.5656 199.855 17.0242V28.9782H195.147V17.9532C195.155 16.8042 194.89 15.9079 194.352 15.2641C193.814 14.6123 193.074 14.2863 192.131 14.2863C191.497 14.2863 190.937 14.4371 190.451 14.7386C189.972 15.0401 189.596 15.4801 189.324 16.0586C189.059 16.629 188.922 17.3176 188.915 18.1243Z" fill="#2E6FF2"/>
<g clip-path="url(#clip0_7163_15219)">
<mask id="mask0_7163_15219" style="mask-type:luminance" maskUnits="userSpaceOnUse" x="91" y="0" width="40" height="31">
<path d="M130.708 0H91.4448V30.0155H130.708V0Z" fill="white"/>
</mask>
<g mask="url(#mask0_7163_15219)">
<path d="M112.445 15.7449C112.356 19.1386 111.51 23.0751 108.789 26.4593C105.003 31.1663 99.087 31.2024 95.1895 26.577C95.1269 26.5029 95.0684 26.427 95.0078 26.3511C90.2404 20.3799 90.2565 9.52314 95.0724 3.58039C96.8829 1.34641 99.1818 -0.130257 102.318 0.0101975C105.144 0.137366 107.199 1.58177 108.846 3.61265C111.165 6.47299 112.445 10.5841 112.443 15.7449H112.445ZM109.48 12.0665C108.937 9.21565 108.061 6.64381 106.05 4.52943C105.719 4.18018 105.338 3.8632 104.94 3.58039C102.98 2.19863 100.696 2.15118 98.871 3.67719C97.8214 4.55598 96.8546 5.64355 96.2148 6.81274C93.8815 11.0871 93.6514 15.6025 94.9472 20.2034C95.581 22.4563 96.6265 24.5176 98.5137 26.1005C100.387 27.6721 102.633 27.9227 104.587 26.6415C107.76 24.5612 108.767 21.3687 109.49 17.9447C107.102 18.7286 105.568 18.423 104.476 17.0223C103.531 15.8094 103.56 14.0917 104.545 12.8865C105.62 11.5692 107.231 11.2769 109.482 12.0646L109.48 12.0665Z" fill="#F87067"/>
<path d="M114.866 5.9355C114.426 5.09656 113.994 4.39051 113.698 3.63888C113.609 3.41301 113.815 2.99735 114.016 2.77149C117.123 -0.715201 122.292 -0.941067 125.824 2.26851C128.272 4.49299 129.53 7.31159 130.19 10.3921C131.13 14.786 130.825 19.0908 128.995 23.2569C128.115 25.2594 126.866 27.0265 125.017 28.3797C121.561 30.9079 116.592 30.3575 113.909 27.11C113.734 26.8993 113.669 26.4722 113.77 26.2217C114.049 25.5251 114.44 24.8665 114.842 24.0864C115.1 24.4129 115.306 24.6786 115.516 24.9386C118.102 28.1501 121.87 28.2507 124.589 25.1512C126.383 23.1051 127.233 20.6851 127.691 17.9709C125.541 18.7795 123.735 18.5536 122.498 16.667C121.743 15.5187 121.92 13.8921 122.81 12.8576C123.91 11.5803 125.392 11.3031 127.721 12.032C127.515 11.176 127.358 10.3997 127.14 9.63857C126.619 7.82786 125.784 6.15568 124.488 4.71508C121.406 1.28153 117.847 2.48298 115.661 4.89159C115.403 5.17631 115.193 5.50085 114.864 5.9355H114.866Z" fill="#F87067"/>
</g>
</g>
<defs>
<clipPath id="clip0_7163_15219">
<rect width="39.2636" height="30.0155" fill="white" transform="translate(91.4448)"/>
</clipPath>
</defs>
</svg>
