<svg width="222" height="36" viewBox="0 0 222 36" fill="none" xmlns="http://www.w3.org/2000/svg">
<path d="M0 9.13593V4.22021H20.6472V9.13593H12.9505V32.4201H7.69667V9.13593H0ZM29.8077 32.8331C27.8682 32.8331 26.1987 32.3925 24.7993 31.5113C23.4081 30.6208 22.336 29.3633 21.5832 27.7384C20.8303 26.1045 20.4538 24.1722 20.4538 21.9415C20.4538 19.766 20.8303 17.8566 21.5832 16.2134C22.336 14.5702 23.3958 13.2897 24.7625 12.3718C26.1373 11.4538 27.7495 10.9948 29.599 10.9948C30.8429 10.9948 32.0009 11.2197 33.0729 11.6695C34.1533 12.1101 35.0942 12.7756 35.8962 13.6661C36.7064 14.5565 37.3366 15.6764 37.7867 17.0258C38.2367 18.366 38.4618 19.9357 38.4618 21.735V23.346H22.5407V19.7109H33.5394C33.5394 18.8663 33.3759 18.1182 33.0484 17.4665C32.721 16.8147 32.2668 16.3052 31.6858 15.938C31.1129 15.5617 30.446 15.3735 29.6849 15.3735C28.8911 15.3735 28.1873 15.58 27.5735 15.9931C26.9679 16.397 26.4933 16.9432 26.1496 17.6317C25.8059 18.311 25.6299 19.0683 25.6218 19.9036V23.3598C25.6218 24.4062 25.7936 25.3104 26.1373 26.0724C26.4892 26.8342 26.9843 27.4218 27.6227 27.8348C28.261 28.2479 29.0179 28.4545 29.8936 28.4545C30.4746 28.4545 31.0066 28.3627 31.4894 28.1791C31.9722 27.9955 32.3855 27.7201 32.7292 27.3529C33.0729 26.9857 33.3348 26.5359 33.5148 26.0035L38.3515 26.3615C38.1057 27.665 37.6024 28.8033 36.8416 29.7763C36.0887 30.7402 35.1146 31.4929 33.9199 32.0345C32.7333 32.5669 31.3625 32.8331 29.8077 32.8331ZM47.2509 32.8194C46.0479 32.8194 44.976 32.5853 44.0347 32.1172C43.0938 31.6398 42.3489 30.9375 41.8006 30.0104C41.2607 29.0741 40.9904 27.9083 40.9904 26.513C40.9904 25.338 41.1829 24.3511 41.5673 23.5525C41.952 22.7539 42.4757 22.1113 43.1387 21.6248C43.8017 21.1383 44.5546 20.7711 45.3974 20.5233C46.2484 20.2754 47.1406 20.101 48.0736 20C49.1701 19.8715 50.0539 19.7522 50.7249 19.642C51.3959 19.5227 51.8829 19.3483 52.1857 19.1188C52.4885 18.8893 52.6399 18.5496 52.6399 18.0998V18.0172C52.6399 17.1452 52.3945 16.4704 51.9033 15.9931C51.4204 15.5158 50.7332 15.2771 49.841 15.2771C48.9001 15.2771 48.151 15.5112 47.5948 15.9793C47.0383 16.4383 46.6698 17.0166 46.49 17.7143L41.6534 17.2737C41.8988 15.9885 42.3817 14.8778 43.1018 13.9415C43.8221 12.996 44.751 12.2708 45.8882 11.7659C47.0341 11.2518 48.3598 10.9948 49.8656 10.9948C50.913 10.9948 51.9158 11.1325 52.8729 11.4079C53.8387 11.6833 54.6939 12.1101 55.4385 12.6884C56.1914 13.2668 56.7849 14.0103 57.2184 14.9191C57.6522 15.8187 57.8693 16.8973 57.8693 18.1549V32.4201H52.9099V29.4872H52.7627C52.4598 30.1481 52.0547 30.731 51.5473 31.2359C51.0398 31.7316 50.4304 32.1217 49.7183 32.4063C49.0062 32.6817 48.1838 32.8194 47.2509 32.8194ZM48.7487 28.7712C49.5178 28.7712 50.1971 28.6013 50.7864 28.2617C51.3755 27.9128 51.838 27.4447 52.1733 26.8572C52.5089 26.2697 52.6766 25.6042 52.6766 24.8607V22.6162C52.5131 22.7356 52.288 22.8457 52.0015 22.9467C51.7232 23.0385 51.4083 23.1257 51.0564 23.2083C50.7045 23.2817 50.3526 23.3506 50.0007 23.4149C49.6488 23.4699 49.3298 23.5204 49.0432 23.5663C48.4293 23.6673 47.8935 23.8279 47.4351 24.0482C46.9768 24.2686 46.6207 24.5669 46.367 24.9432C46.1136 25.3104 45.9867 25.7694 45.9867 26.3202C45.9867 27.1188 46.2443 27.7293 46.76 28.1515C47.2837 28.5646 47.9467 28.7712 48.7487 28.7712ZM70.4453 32.8331C68.514 32.8331 66.8527 32.3742 65.4613 31.4562C64.0783 30.5291 63.0147 29.2439 62.2697 27.6007C61.5334 25.9576 61.165 24.0666 61.165 21.9277C61.165 19.7613 61.5376 17.8612 62.2822 16.2272C63.0351 14.584 64.1028 13.3035 65.4859 12.3855C66.8689 11.4584 68.514 10.9948 70.4207 10.9948C72.0655 10.9948 73.5059 11.3298 74.7417 11.9999C75.9775 12.6701 76.9554 13.611 77.6754 14.8227C78.3958 16.0344 78.7926 17.4573 78.8663 19.0912H73.9314C73.7924 18.0356 73.424 17.1865 72.8266 16.5439C72.2376 15.8921 71.464 15.5663 70.5068 15.5663C69.6966 15.5663 68.9886 15.8141 68.383 16.3098C67.7857 16.7963 67.319 17.5078 66.9837 18.4441C66.6481 19.3804 66.4804 20.5141 66.4804 21.8451C66.4804 23.1945 66.6439 24.342 66.9713 25.2875C67.3069 26.233 67.7774 26.9536 68.383 27.4493C68.9886 27.945 69.6966 28.1928 70.5068 28.1928C71.1041 28.1928 71.6399 28.0551 72.1149 27.7798C72.5975 27.5044 72.9946 27.1051 73.3054 26.5818C73.6245 26.0494 73.8332 25.4114 73.9314 24.6679H78.8663C78.7843 26.2835 78.3917 27.7063 77.6879 28.9364C76.992 30.1573 76.0307 31.112 74.8032 31.8004C73.5754 32.4889 72.1228 32.8331 70.4453 32.8331ZM87.4435 20.1928V32.4201H82.2141V4.22021H87.2962V15.0017H87.5171C87.9426 13.7533 88.6302 12.7756 89.5794 12.0688C90.529 11.3528 91.7195 10.9948 93.1516 10.9948C94.461 10.9948 95.6028 11.3161 96.5765 11.9587C97.5586 12.592 98.3194 13.5054 98.8597 14.6988C99.408 15.883 99.6779 17.3012 99.67 18.9535V32.4201H94.4406V20C94.4486 18.6965 94.154 17.6822 93.5567 16.957C92.9673 16.2318 92.1409 15.8692 91.0772 15.8692C90.3651 15.8692 89.7349 16.039 89.1867 16.3787C88.6464 16.7183 88.2209 17.214 87.9101 17.8658C87.6073 18.5083 87.4518 19.284 87.4435 20.1928ZM151.886 4.22021H158.441L165.365 23.167H165.659L172.582 4.22021H179.137V32.4201H173.982V14.0654H173.773L167.267 32.2824H163.757L157.251 13.9965H157.042V32.4201H151.886V4.22021ZM191.938 32.8331C190.031 32.8331 188.382 32.3788 186.991 31.47C185.608 30.552 184.54 29.2761 183.787 27.6421C183.034 25.9989 182.657 24.0942 182.657 21.9277C182.657 19.743 183.034 17.8336 183.787 16.1996C184.54 14.5565 185.608 13.2805 186.991 12.3718C188.382 11.4538 190.031 10.9948 191.938 10.9948C193.844 10.9948 195.489 11.4538 196.872 12.3718C198.264 13.2805 199.336 14.5565 200.088 16.1996C200.841 17.8336 201.218 19.743 201.218 21.9277C201.218 24.0942 200.841 25.9989 200.088 27.6421C199.336 29.2761 198.264 30.552 196.872 31.47C195.489 32.3788 193.844 32.8331 191.938 32.8331ZM191.962 28.2892C192.83 28.2892 193.554 28.0139 194.135 27.4631C194.716 26.9031 195.154 26.1412 195.448 25.1773C195.751 24.2135 195.903 23.1165 195.903 21.8864C195.903 20.6564 195.751 19.5594 195.448 18.5955C195.154 17.6317 194.716 16.8697 194.135 16.3098C193.554 15.7499 192.83 15.4699 191.962 15.4699C191.087 15.4699 190.35 15.7499 189.753 16.3098C189.163 16.8697 188.717 17.6317 188.415 18.5955C188.12 19.5594 187.973 20.6564 187.973 21.8864C187.973 23.1165 188.12 24.2135 188.415 25.1773C188.717 26.1412 189.163 26.9031 189.753 27.4631C190.35 28.0139 191.087 28.2892 191.962 28.2892ZM209.847 20.1928V32.4201H204.618V11.2702H209.602V15.0017H209.823C210.24 13.7716 210.94 12.7986 211.922 12.0826C212.904 11.3574 214.095 10.9948 215.494 10.9948C216.803 10.9948 217.945 11.3161 218.919 11.9587C219.893 12.6012 220.65 13.5192 221.19 14.7126C221.73 15.8967 222 17.3104 222 18.9535V32.4201H216.771V20C216.779 18.7057 216.484 17.6959 215.887 16.9707C215.289 16.2364 214.467 15.8692 213.42 15.8692C212.716 15.8692 212.094 16.039 211.554 16.3787C211.022 16.7183 210.605 17.214 210.302 17.8658C210.007 18.5083 209.856 19.284 209.847 20.1928Z" fill="#BCBCBC"/>
<g clip-path="url(#clip0_7236_3468)">
<mask id="mask0_7236_3468" style="mask-type:luminance" maskUnits="userSpaceOnUse" x="103" y="0" width="45" height="36">
<path d="M147.091 0H103.525V35.3971H147.091V0Z" fill="white"/>
</mask>
<g mask="url(#mask0_7236_3468)">
<path d="M126.827 18.5672C126.728 22.5693 125.79 27.2116 122.771 31.2026C118.57 36.7535 112.006 36.7961 107.681 31.3414C107.612 31.2541 107.547 31.1645 107.48 31.075C102.19 24.0332 102.208 11.2299 107.551 4.22166C109.56 1.58715 112.111 -0.154274 115.591 0.0113625C118.726 0.161331 121.006 1.86471 122.834 4.25972C125.407 7.63289 126.827 12.4811 126.825 18.5672H126.827ZM123.537 14.2293C122.935 10.8673 121.963 7.83434 119.732 5.34086C119.365 4.92899 118.941 4.55518 118.5 4.22166C116.326 2.59216 113.791 2.53621 111.766 4.33582C110.601 5.37217 109.529 6.65474 108.819 8.03355C106.23 13.0743 105.975 18.3993 107.412 23.825C108.116 26.4819 109.276 28.9128 111.37 30.7795C113.448 32.6329 115.941 32.9283 118.108 31.4175C121.629 28.9642 122.746 25.1994 123.548 21.1614C120.899 22.0858 119.197 21.7255 117.985 20.0736C116.937 18.6433 116.968 16.6176 118.061 15.1963C119.255 13.6428 121.042 13.2981 123.539 14.2271L123.537 14.2293Z" fill="#BCBCBC"/>
<path d="M129.514 6.99943C129.026 6.01008 128.547 5.17743 128.217 4.29104C128.119 4.02468 128.347 3.5345 128.571 3.26813C132.018 -0.843694 137.753 -1.11006 141.672 2.67497C144.389 5.29829 145.784 8.62224 146.517 12.255C147.56 17.4368 147.222 22.5133 145.191 27.4265C144.214 29.7879 142.828 31.8718 140.777 33.4678C136.943 36.4492 131.429 35.8002 128.453 31.9703C128.258 31.7219 128.186 31.2182 128.298 30.9228C128.607 30.1013 129.042 29.3246 129.487 28.4046C129.774 28.7897 130.002 29.103 130.235 29.4097C133.104 33.1969 137.285 33.3156 140.302 29.6604C142.293 27.2474 143.236 24.3935 143.744 21.1927C141.359 22.1463 139.355 21.8799 137.982 19.655C137.144 18.3008 137.341 16.3825 138.329 15.1627C139.549 13.6563 141.193 13.3294 143.778 14.189C143.549 13.1795 143.375 12.264 143.133 11.3664C142.555 9.23107 141.628 7.25908 140.19 5.5602C136.77 1.51103 132.822 2.9279 130.396 5.76836C130.11 6.10412 129.877 6.48685 129.512 6.99943H129.514Z" fill="#BCBCBC"/>
</g>
</g>
<defs>
<clipPath id="clip0_7236_3468">
<rect width="43.5656" height="35.3971" fill="white" transform="translate(103.525)"/>
</clipPath>
</defs>
</svg>
