<svg width="40" height="31" viewBox="0 0 40 31" fill="none" xmlns="http://www.w3.org/2000/svg">
<g clip-path="url(#clip0_7163_15221)">
<mask id="mask0_7163_15221" style="mask-type:luminance" maskUnits="userSpaceOnUse" x="0" y="0" width="40" height="31">
<path d="M39.2636 0H0V30.0155H39.2636V0Z" fill="white"/>
</mask>
<g mask="url(#mask0_7163_15221)">
<path d="M20.9998 15.7449C20.911 19.1386 20.0653 23.0751 17.3445 26.4593C13.558 31.1663 7.64213 31.2024 3.74463 26.577C3.68205 26.5029 3.62353 26.427 3.56297 26.3511C-1.20446 20.3799 -1.18831 9.52314 3.62754 3.58039C5.43806 1.34641 7.73697 -0.130257 10.8736 0.0101975C13.6993 0.137366 15.754 1.58177 17.401 3.61265C19.7201 6.47299 20.9998 10.5841 20.9978 15.7449H20.9998ZM18.0348 12.0665C17.4918 9.21565 16.6159 6.64381 14.6055 4.52943C14.2745 4.18018 13.8931 3.8632 13.4954 3.58039C11.5356 2.19863 9.25077 2.15118 7.42615 3.67719C6.37658 4.55598 5.40978 5.64355 4.76996 6.81274C2.43671 11.0871 2.20662 15.6025 3.50242 20.2034C4.13619 22.4563 5.18171 24.5176 7.06891 26.1005C8.94197 27.6721 11.1884 27.9227 13.1422 26.6415C16.3151 24.5612 17.3223 21.3687 18.0449 17.9447C15.6571 18.7286 14.1231 18.423 13.0312 17.0223C12.0866 15.8094 12.1149 14.0917 13.0998 12.8865C14.1756 11.5692 15.7863 11.2769 18.0368 12.0646L18.0348 12.0665Z" fill="#F87067"/>
<path d="M23.4213 5.9355C22.9813 5.09656 22.5494 4.39051 22.2527 3.63888C22.1639 3.41301 22.3698 2.99735 22.5716 2.77149C25.6779 -0.715201 30.8469 -0.941067 34.3791 2.26851C36.8275 4.49299 38.0849 7.31159 38.745 10.3921C39.6855 14.786 39.3806 19.0908 37.5499 23.2569C36.6699 25.2594 35.4208 27.0265 33.5717 28.3797C30.1163 30.9079 25.1471 30.3575 22.4646 27.11C22.289 26.8993 22.2244 26.4722 22.3253 26.2217C22.6039 25.5251 22.9955 24.8665 23.3971 24.0864C23.6555 24.4129 23.8613 24.6786 24.0713 24.9386C26.6568 28.1501 30.4251 28.2507 33.1438 25.1512C34.9383 23.1051 35.788 20.6851 36.2462 17.9709C34.0966 18.7795 32.2901 18.5536 31.0527 16.667C30.298 15.5187 30.4756 13.8921 31.3656 12.8576C32.4656 11.5803 33.9472 11.3031 36.2763 12.032C36.0705 11.176 35.9131 10.3997 35.695 9.63857C35.1745 7.82786 34.3389 6.15568 33.0429 4.71508C29.9609 1.28153 26.4025 2.48298 24.2166 4.89159C23.9582 5.17631 23.7483 5.50085 23.4193 5.9355H23.4213Z" fill="#F87067"/>
</g>
</g>
<defs>
<clipPath id="clip0_7163_15221">
<rect width="39.2636" height="30.0155" fill="white"/>
</clipPath>
</defs>
</svg>
