<svg width="132" height="77" viewBox="0 0 132 77" fill="none" xmlns="http://www.w3.org/2000/svg">
<path d="M74.25 26.625V0.75H0.75V76.125H74.25V66" stroke="white" stroke-width="1.5"/>
<path d="M72.7833 61.3967H71.9317V52.4367H72.7833V61.3967ZM68.8633 60.02C69.2678 60.02 69.6722 59.9811 70.0767 59.9033C70.4811 59.8256 70.8117 59.7206 71.0683 59.5883V60.405C70.8117 60.545 70.485 60.6539 70.0883 60.7317C69.6917 60.8017 69.2833 60.8367 68.8633 60.8367H65.3867V52.7867H70.3917V53.6033H66.2267V56.3333H70.24V57.1383H66.2267V60.02H68.8633ZM77.6938 54.7117C77.6704 55.4117 77.5888 56.1156 77.4488 56.8233L80.2488 60.2533L79.6421 60.825L77.1688 57.78C76.881 58.6667 76.4921 59.3744 76.0021 59.9033C75.5121 60.4244 74.9482 60.7356 74.3104 60.8367V59.9733C74.7927 59.8722 75.2165 59.5844 75.5821 59.11C75.9554 58.6356 76.2471 58.0172 76.4571 57.255C76.6749 56.4928 76.8071 55.645 76.8538 54.7117H74.4504V53.895H76.8538V52.4133H77.7054V53.895H79.9921V54.7117H77.6938ZM82.0221 61.3967H81.1704V52.4367H82.0221V61.3967ZM91.8442 58.0133H83.3509V57.255H87.1775V56.065H83.9925V52.565H91.2142V56.065H88.0175V57.255H91.8442V58.0133ZM90.3742 55.33V53.3H84.8325V55.33H90.3742ZM91.3892 60.4983V61.2683H83.9692V58.76H84.8209V60.4983H91.3892ZM102.562 56.9867V61.3967H101.722V52.4367H102.562V56.1467H103.798V56.9867H102.562ZM98.5134 52.6933C98.4979 54.1556 98.3851 55.4078 98.1751 56.45L100.917 60.3117L100.228 60.8133L97.8951 57.4883C97.6073 58.4917 97.2145 59.285 96.7168 59.8683C96.219 60.4439 95.6434 60.7667 94.9901 60.8367V59.9617C95.5579 59.8606 96.0401 59.4756 96.4368 58.8067C96.8412 58.1378 97.1445 57.2706 97.3468 56.205C97.549 55.1394 97.654 53.9611 97.6618 52.67L98.5134 52.6933ZM112.629 57.4183H104.136V56.695H106.061V55.4933C105.617 55.3611 105.271 55.1783 105.022 54.945C104.773 54.7117 104.649 54.4278 104.649 54.0933C104.649 53.5256 104.999 53.1017 105.699 52.8217C106.399 52.5339 107.293 52.39 108.382 52.39C109.471 52.39 110.362 52.5339 111.054 52.8217C111.754 53.1017 112.104 53.5256 112.104 54.0933C112.104 54.4278 111.979 54.7117 111.731 54.945C111.482 55.1783 111.136 55.3611 110.692 55.4933V56.695H112.629V57.4183ZM108.382 53.1133C107.558 53.1133 106.873 53.195 106.329 53.3583C105.792 53.5217 105.524 53.7667 105.524 54.0933C105.524 54.42 105.792 54.665 106.329 54.8283C106.866 54.9917 107.55 55.0733 108.382 55.0733C109.207 55.0733 109.887 54.9917 110.424 54.8283C110.961 54.665 111.229 54.42 111.229 54.0933C111.229 53.7667 110.957 53.5217 110.412 53.3583C109.876 53.195 109.199 53.1133 108.382 53.1133ZM109.852 56.695V55.68C109.432 55.7578 108.942 55.7967 108.382 55.7967C107.83 55.7967 107.336 55.7578 106.901 55.68V56.695H109.852ZM108.382 58.2C109.487 58.2 110.381 58.3244 111.066 58.5733C111.75 58.8144 112.092 59.2189 112.092 59.7867C112.092 60.3544 111.75 60.7628 111.066 61.0117C110.381 61.2683 109.487 61.3967 108.382 61.3967C107.278 61.3967 106.379 61.2683 105.687 61.0117C105.003 60.7628 104.661 60.3544 104.661 59.7867C104.661 59.2189 105.003 58.8144 105.687 58.5733C106.379 58.3244 107.278 58.2 108.382 58.2ZM108.382 60.685C109.191 60.685 109.864 60.615 110.401 60.475C110.937 60.335 111.206 60.1056 111.206 59.7867C111.206 59.4756 110.937 59.2539 110.401 59.1217C109.864 58.9817 109.191 58.9117 108.382 58.9117C107.573 58.9117 106.897 58.9817 106.352 59.1217C105.816 59.2539 105.547 59.4756 105.547 59.7867C105.547 60.1056 105.816 60.335 106.352 60.475C106.897 60.615 107.573 60.685 108.382 60.685ZM119.103 53.895V54.7H113.573V53.895H115.906V52.4133H116.758V53.895H119.103ZM121.039 56.9867V61.3967H120.199V52.4367H121.039V56.1467H122.276V56.9867H121.039ZM116.338 55.4933C116.781 55.4933 117.182 55.6061 117.539 55.8317C117.897 56.0572 118.177 56.3761 118.379 56.7883C118.582 57.2006 118.683 57.675 118.683 58.2117C118.683 58.7483 118.582 59.2267 118.379 59.6467C118.177 60.0589 117.897 60.3778 117.539 60.6033C117.182 60.8289 116.781 60.9417 116.338 60.9417C115.887 60.9417 115.482 60.8289 115.124 60.6033C114.767 60.3778 114.487 60.0589 114.284 59.6467C114.082 59.2267 113.981 58.7483 113.981 58.2117C113.981 57.675 114.082 57.2006 114.284 56.7883C114.487 56.3761 114.767 56.0572 115.124 55.8317C115.482 55.6061 115.887 55.4933 116.338 55.4933ZM116.338 60.16C116.618 60.16 116.87 60.0822 117.096 59.9267C117.329 59.7633 117.512 59.5339 117.644 59.2383C117.784 58.9428 117.854 58.6006 117.854 58.2117C117.854 57.8228 117.784 57.4806 117.644 57.185C117.512 56.8894 117.329 56.6639 117.096 56.5083C116.87 56.345 116.618 56.2633 116.338 56.2633C116.05 56.2633 115.789 56.345 115.556 56.5083C115.33 56.6639 115.148 56.8894 115.008 57.185C114.875 57.4806 114.809 57.8228 114.809 58.2117C114.809 58.6006 114.875 58.9428 115.008 59.2383C115.148 59.5339 115.33 59.7633 115.556 59.9267C115.789 60.0822 116.05 60.16 116.338 60.16ZM129.671 61.3967V52.4367H130.523V61.3967H129.671ZM127.723 54.8867C127.723 56.0767 127.533 57.1189 127.151 58.0133C126.77 58.9 126.226 59.5883 125.518 60.0783C124.818 60.5683 123.99 60.8133 123.033 60.8133V59.9733C123.819 59.9733 124.499 59.7672 125.075 59.355C125.65 58.9428 126.09 58.3594 126.393 57.605C126.704 56.8428 126.86 55.9483 126.86 54.9217V53.5917H123.033V52.7867H127.723V54.8867Z" fill="white"/>
<path d="M74.085 39.34V45.01H73.005V33.49H74.085V38.26H75.675V39.34H74.085ZM68.88 33.82C68.86 35.7 68.715 37.31 68.445 38.65L71.97 43.615L71.085 44.26L68.085 39.985C67.715 41.275 67.21 42.295 66.57 43.045C65.93 43.785 65.19 44.2 64.35 44.29V43.165C65.08 43.035 65.7 42.54 66.21 41.68C66.73 40.82 67.12 39.705 67.38 38.335C67.64 36.965 67.775 35.45 67.785 33.79L68.88 33.82ZM87.0284 39.895H76.1084V38.965H78.5834V37.42C78.0134 37.25 77.5684 37.015 77.2484 36.715C76.9284 36.415 76.7684 36.05 76.7684 35.62C76.7684 34.89 77.2184 34.345 78.1184 33.985C79.0184 33.615 80.1684 33.43 81.5684 33.43C82.9684 33.43 84.1134 33.615 85.0034 33.985C85.9034 34.345 86.3534 34.89 86.3534 35.62C86.3534 36.05 86.1934 36.415 85.8734 36.715C85.5534 37.015 85.1084 37.25 84.5384 37.42V38.965H87.0284V39.895ZM81.5684 34.36C80.5084 34.36 79.6284 34.465 78.9284 34.675C78.2384 34.885 77.8934 35.2 77.8934 35.62C77.8934 36.04 78.2384 36.355 78.9284 36.565C79.6184 36.775 80.4984 36.88 81.5684 36.88C82.6284 36.88 83.5034 36.775 84.1934 36.565C84.8834 36.355 85.2284 36.04 85.2284 35.62C85.2284 35.2 84.8784 34.885 84.1784 34.675C83.4884 34.465 82.6184 34.36 81.5684 34.36ZM83.4584 38.965V37.66C82.9184 37.76 82.2884 37.81 81.5684 37.81C80.8584 37.81 80.2234 37.76 79.6634 37.66V38.965H83.4584ZM81.5684 40.9C82.9884 40.9 84.1384 41.06 85.0184 41.38C85.8984 41.69 86.3384 42.21 86.3384 42.94C86.3384 43.67 85.8984 44.195 85.0184 44.515C84.1384 44.845 82.9884 45.01 81.5684 45.01C80.1484 45.01 78.9934 44.845 78.1034 44.515C77.2234 44.195 76.7834 43.67 76.7834 42.94C76.7834 42.21 77.2234 41.69 78.1034 41.38C78.9934 41.06 80.1484 40.9 81.5684 40.9ZM81.5684 44.095C82.6084 44.095 83.4734 44.005 84.1634 43.825C84.8534 43.645 85.1984 43.35 85.1984 42.94C85.1984 42.54 84.8534 42.255 84.1634 42.085C83.4734 41.905 82.6084 41.815 81.5684 41.815C80.5284 41.815 79.6584 41.905 78.9584 42.085C78.2684 42.255 77.9234 42.54 77.9234 42.94C77.9234 43.35 78.2684 43.645 78.9584 43.825C79.6584 44.005 80.5284 44.095 81.5684 44.095Z" fill="white"/>
<path d="M31.6875 49.5V28.7137L38.7994 35.8256L40.125 34.5L30.75 25.125L21.375 34.5L22.7006 35.8256L29.8125 28.7156V49.5C29.8125 49.9973 30.01 50.4742 30.3617 50.8258C30.7133 51.1775 31.1902 51.375 31.6875 51.375H45.75V49.5H31.6875Z" fill="white"/>
</svg>
