<svg width="52" height="52" viewBox="0 0 52 52" fill="none" xmlns="http://www.w3.org/2000/svg">
<path d="M13 44.3083C13 40.4792 16.1042 37.375 19.9333 37.375H32.0667C35.8958 37.375 39 40.4792 39 44.3083C39 45.2656 38.224 46.0417 37.2667 46.0417H14.7333C13.776 46.0417 13 45.2656 13 44.3083Z" stroke="#2E6FF2" stroke-width="4" stroke-linecap="round"/>
<circle cx="26" cy="18.958" r="13" stroke="#2E6FF2" stroke-width="4" stroke-linecap="round"/>
<path d="M8.66634 8.78223C6.94433 11.7406 5.95801 15.18 5.95801 18.8498C5.95801 22.5196 6.94433 25.959 8.66634 28.9174" stroke="#2E6FF2" stroke-width="4" stroke-linecap="round"/>
<path d="M32.6282 35.6358C31.6009 36.0418 31.0973 37.2037 31.5033 38.2309C31.9092 39.2582 33.0711 39.7618 34.0984 39.3559L33.3633 37.4958L32.6282 35.6358ZM46.0073 20.041L44.0107 19.924C43.5915 27.0773 39.0002 33.1176 32.6282 35.6358L33.3633 37.4958L34.0984 39.3559C41.8765 36.2819 47.4909 28.9094 48.0039 20.158L46.0073 20.041Z" fill="#2E6FF2"/>
<circle cx="26.0003" cy="18.9583" r="4.33333" stroke="#2E6FF2" stroke-width="4" stroke-linecap="round"/>
<circle cx="46.0413" cy="18.9583" r="1.08333" stroke="#2E6FF2" stroke-width="3.25" stroke-linecap="round"/>
</svg>
