<svg width="63" height="63" viewBox="0 0 63 63" fill="none" xmlns="http://www.w3.org/2000/svg">
<g clip-path="url(#clip0_7257_17498)">
<path d="M28.037 54.051H53.934M47.4598 18.4426L50.6969 21.6798M52.3155 10.3498C52.9536 10.9872 53.4599 11.7441 53.8053 12.5773C54.1507 13.4105 54.3285 14.3036 54.3285 15.2055C54.3285 16.1075 54.1507 17.0006 53.8053 17.8337C53.4599 18.6669 52.9536 19.4238 52.3155 20.0612L21.5628 50.8139L8.61426 54.051L11.8514 41.2838L42.617 10.3628C43.8297 9.14423 45.4562 8.42621 47.1736 8.35125C48.8911 8.27629 50.574 8.84987 51.8882 9.95813L52.3155 10.3498Z" stroke="#2E6FF2" stroke-width="3.23713" stroke-linecap="round" stroke-linejoin="round"/>
</g>
<defs>
<clipPath id="clip0_7257_17498">
<rect width="48" height="48" fill="white" transform="translate(7.33301 7.33301)"/>
</clipPath>
</defs>
</svg>
