<svg width="52" height="52" viewBox="0 0 52 52" fill="none" xmlns="http://www.w3.org/2000/svg">
<path d="M28.1663 25.9997H47.6663M47.6663 25.9997L40.4448 17.3331M47.6663 25.9997L40.4448 34.6664M30.333 15.1664V11.2101C30.333 10.6107 30.2086 10.0179 29.9678 9.46904C29.7269 8.9202 29.3749 8.42729 28.9338 8.02146C28.4928 7.61563 27.9723 7.30571 27.4054 7.11128C26.8384 6.91686 26.2373 6.84216 25.64 6.89191L8.30667 8.33491C7.22345 8.42512 6.21369 8.91915 5.47766 9.71899C4.74162 10.5188 4.33306 11.5661 4.33301 12.6531V39.3464C4.33306 40.4334 4.74162 41.4806 5.47766 42.2805C6.21369 43.0803 7.22345 43.5744 8.30667 43.6646L25.64 45.1097C26.2375 45.1595 26.8388 45.0847 27.4059 44.8902C27.973 44.6956 28.4935 44.3855 28.9346 43.9795C29.3757 43.5734 29.7277 43.0802 29.9684 42.5311C30.2091 41.982 30.3333 41.3889 30.333 40.7894V36.8331" stroke="#2E6FF2" stroke-width="4.33333" stroke-linecap="round" stroke-linejoin="round"/>
</svg>
