<svg width="22" height="21" viewBox="0 0 22 21" fill="none" xmlns="http://www.w3.org/2000/svg">
<path d="M13.0159 17.2402L13.9389 16.8582M13.9389 14.5622L13.0159 14.1792M15.5629 12.9382L15.1799 12.0152M15.5629 18.4822L15.1799 19.4062M17.8589 12.9382L18.2419 12.0152M18.2409 19.4062L17.8589 18.4822M0.710938 18.7102C0.711054 17.4512 1.00833 16.2099 1.57859 15.0874C2.14886 13.965 2.976 12.9929 3.99276 12.2504C5.00952 11.5078 6.18718 11.0158 7.42997 10.8142C8.67276 10.6126 9.94559 10.7071 11.1449 11.0902M19.4829 14.5622L20.4069 14.1792M19.4829 16.8582L20.4069 17.2412" stroke="black" stroke-width="1.42" stroke-linecap="round" stroke-linejoin="round"/>
<path d="M8.71094 10.71C11.4724 10.71 13.7109 8.47139 13.7109 5.70996C13.7109 2.94854 11.4724 0.709961 8.71094 0.709961C5.94951 0.709961 3.71094 2.94854 3.71094 5.70996C3.71094 8.47139 5.94951 10.71 8.71094 10.71Z" stroke="black" stroke-width="1.42" stroke-linecap="round" stroke-linejoin="round"/>
<path d="M16.7109 18.71C18.3678 18.71 19.7109 17.3668 19.7109 15.71C19.7109 14.0531 18.3678 12.71 16.7109 12.71C15.0541 12.71 13.7109 14.0531 13.7109 15.71C13.7109 17.3668 15.0541 18.71 16.7109 18.71Z" stroke="black" stroke-width="1.42" stroke-linecap="round" stroke-linejoin="round"/>
</svg>
