<svg width="48" height="48" viewBox="0 0 48 48" fill="none" xmlns="http://www.w3.org/2000/svg">
<path d="M45.1878 46.2867C43.7481 41.798 40.9206 37.8826 37.1128 35.1048C33.3046 32.3269 28.7127 30.8301 23.9991 30.8301C19.2855 30.8301 14.6936 32.3269 10.8856 35.1048C7.07751 37.8826 4.24994 41.798 2.81055 46.2867H45.1878Z" stroke="#2E6FF2" stroke-width="3.42857" stroke-linecap="round" stroke-linejoin="round"/>
<path d="M23.9982 30.8577C32.0118 30.8577 38.5083 24.3614 38.5083 16.3478C38.5083 8.33418 32.0118 1.83789 23.9982 1.83789C15.9846 1.83789 9.48828 8.33418 9.48828 16.3478C9.48828 24.3614 15.9846 30.8577 23.9982 30.8577Z" stroke="#2E6FF2" stroke-width="3.42857" stroke-linecap="round" stroke-linejoin="round"/>
<path d="M28.7357 21.9619C28.7357 21.9619 27.5317 24.3309 23.9977 24.3309C20.4637 24.3309 19.2598 21.9619 19.2598 21.9619" stroke="#2E6FF2" stroke-width="3.42857" stroke-linecap="round" stroke-linejoin="round"/>
<path d="M38.246 13.5852C38.2134 13.5854 38.1812 13.5855 38.1489 13.5855C33.9312 13.5855 30.1446 11.7403 27.5521 8.81312C24.9597 11.7404 21.1731 13.5856 16.9554 13.5856C14.5063 13.5856 12.2024 12.9634 10.1934 11.8684C12.0809 6.04695 17.5482 1.83789 23.9986 1.83789C31.0676 1.83789 36.9558 6.89288 38.246 13.5852Z" stroke="#2E6FF2" stroke-width="3.42857" stroke-linecap="round" stroke-linejoin="round"/>
</svg>
